<svg width="180" height="52" viewBox="0 0 180 52" fill="none" xmlns="http://www.w3.org/2000/svg">
<rect width="180" height="52" rx="5" fill="url(#paint0_linear_979_5)"/>
<path d="M25.692 32H34.62V30.02H28.032V19.4H25.692V32ZM40.4835 32.126C43.4715 32.126 45.6135 30.074 45.6135 27.194C45.6135 24.314 43.4715 22.28 40.4835 22.28C37.5315 22.28 35.3715 24.314 35.3715 27.194C35.3715 30.074 37.5315 32.126 40.4835 32.126ZM40.4835 30.2C38.8635 30.2 37.6395 29.03 37.6395 27.194C37.6395 25.358 38.8635 24.188 40.4835 24.188C42.1215 24.188 43.3455 25.358 43.3455 27.194C43.3455 29.03 42.1215 30.2 40.4835 30.2ZM55.1631 22.388V23.666C54.3711 22.712 53.1831 22.28 51.8331 22.28C49.0791 22.28 46.9731 24.116 46.9731 26.906C46.9731 29.696 49.0791 31.568 51.8331 31.568C53.1291 31.568 54.2631 31.154 55.0551 30.29V30.794C55.0551 32.738 54.1191 33.71 51.9951 33.71C50.6631 33.71 49.2951 33.26 48.4491 32.558L47.4411 34.25C48.5391 35.15 50.3211 35.618 52.1211 35.618C55.4871 35.618 57.3051 34.034 57.3051 30.542V22.388H55.1631ZM52.1751 29.66C50.4651 29.66 49.2411 28.544 49.2411 26.906C49.2411 25.286 50.4651 24.188 52.1751 24.188C53.8671 24.188 55.0911 25.286 55.0911 26.906C55.0911 28.544 53.8671 29.66 52.1751 29.66ZM61.3971 20.804C62.2431 20.804 62.8371 20.192 62.8371 19.4C62.8371 18.662 62.2251 18.104 61.3971 18.104C60.5691 18.104 59.9571 18.698 59.9571 19.454C59.9571 20.21 60.5691 20.804 61.3971 20.804ZM60.2631 32H62.5131V22.388H60.2631V32ZM70.9202 22.28C69.5162 22.28 68.3462 22.748 67.6082 23.63V22.388H65.4662V32H67.7162V27.14C67.7162 25.214 68.7962 24.242 70.3982 24.242C71.8382 24.242 72.6842 25.07 72.6842 26.78V32H74.9342V26.492C74.9342 23.594 73.2242 22.28 70.9202 22.28ZM75.7725 33.8H77.7885L83.7285 16.844H81.7125L75.7725 33.8ZM88.2386 32.18C91.6946 32.18 93.3326 30.452 93.3326 28.436C93.3326 23.81 85.8626 25.556 85.8626 22.874C85.8626 21.92 86.6546 21.164 88.5986 21.164C89.6966 21.164 90.9386 21.488 92.0726 22.154L92.8106 20.336C91.7126 19.616 90.1286 19.22 88.6166 19.22C85.1606 19.22 83.5406 20.948 83.5406 22.982C83.5406 27.662 91.0286 25.88 91.0286 28.598C91.0286 29.534 90.2006 30.236 88.2386 30.236C86.6906 30.236 85.0886 29.66 84.0806 28.85L83.2706 30.668C84.3146 31.568 86.2766 32.18 88.2386 32.18ZM96.5709 20.804C97.4169 20.804 98.0109 20.192 98.0109 19.4C98.0109 18.662 97.3989 18.104 96.5709 18.104C95.7429 18.104 95.1309 18.698 95.1309 19.454C95.1309 20.21 95.7429 20.804 96.5709 20.804ZM95.4369 32H97.6869V22.388H95.4369V32ZM108.038 22.388V23.666C107.246 22.712 106.058 22.28 104.708 22.28C101.954 22.28 99.8481 24.116 99.8481 26.906C99.8481 29.696 101.954 31.568 104.708 31.568C106.004 31.568 107.138 31.154 107.93 30.29V30.794C107.93 32.738 106.994 33.71 104.87 33.71C103.538 33.71 102.17 33.26 101.324 32.558L100.316 34.25C101.414 35.15 103.196 35.618 104.996 35.618C108.362 35.618 110.18 34.034 110.18 30.542V22.388H108.038ZM105.05 29.66C103.34 29.66 102.116 28.544 102.116 26.906C102.116 25.286 103.34 24.188 105.05 24.188C106.742 24.188 107.966 25.286 107.966 26.906C107.966 28.544 106.742 29.66 105.05 29.66ZM118.592 22.28C117.188 22.28 116.018 22.748 115.28 23.63V22.388H113.138V32H115.388V27.14C115.388 25.214 116.468 24.242 118.07 24.242C119.51 24.242 120.356 25.07 120.356 26.78V32H122.606V26.492C122.606 23.594 120.896 22.28 118.592 22.28ZM124.974 27.932H129.924V26.06H124.974V27.932ZM139.442 22.388V27.248C139.442 29.174 138.38 30.146 136.814 30.146C135.392 30.146 134.564 29.318 134.564 27.572V22.388H132.314V27.878C132.314 30.776 133.988 32.126 136.454 32.126C137.696 32.126 138.83 31.658 139.55 30.776V32H141.692V22.388H139.442ZM149.966 22.28C148.652 22.28 147.536 22.73 146.78 23.648V22.388H144.638V35.492H146.888V30.83C147.662 31.712 148.742 32.126 149.966 32.126C152.774 32.126 154.844 30.182 154.844 27.194C154.844 24.224 152.774 22.28 149.966 22.28ZM149.714 30.2C148.094 30.2 146.852 29.03 146.852 27.194C146.852 25.358 148.094 24.188 149.714 24.188C151.334 24.188 152.558 25.358 152.558 27.194C152.558 29.03 151.334 30.2 149.714 30.2Z" fill="white"/>
<defs>
<linearGradient id="paint0_linear_979_5" x1="0" y1="0" x2="182.766" y2="11.0756" gradientUnits="userSpaceOnUse">
<stop stop-color="#1BACF4"/>
<stop offset="0.473958" stop-color="#1AC7DA"/>
<stop offset="0.84375" stop-color="#1ADDC5"/>
<stop offset="1" stop-color="#19EEB5"/>
</linearGradient>
</defs>
</svg>
